<svg width="32" height="32" viewBox="0 0 32 32" fill="none" xmlns="http://www.w3.org/2000/svg">
  <!-- Background circle -->
  <circle cx="16" cy="16" r="16" fill="#10b981"/>
  
  <!-- CertifyPro "C" logo -->
  <path d="M16 8C20.4183 8 24 11.5817 24 16C24 20.4183 20.4183 24 16 24C11.5817 24 8 20.4183 8 16C8 11.5817 11.5817 8 16 8Z" stroke="white" stroke-width="2" fill="none"/>
  
  <!-- Leaf/eco symbol -->
  <path d="M12 16C12 16 14 12 16 12C18 12 20 16 20 16C20 16 18 20 16 20C14 20 12 16 12 16Z" fill="white"/>
  
  <!-- Checkmark -->
  <path d="M10 16L14 20L22 12" stroke="white" stroke-width="2" stroke-linecap="round" stroke-linejoin="round"/>
</svg>
